<svg xmlns="http://www.w3.org/2000/svg" width="980" height="430" viewBox="0 0 980 430">
<rect x="0" y="0" width="980" height="430" rx="20" fill="#FFFFFF" stroke="#E5E7EB" stroke-width="1.5"/>
<text x="40" y="50" font-family="'Malgun Gothic','Segoe UI','Apple SD Gothic Neo',sans-serif" font-size="22" font-weight="800" fill="#1F2430">코봇 키우기 — 16장까지의 성장</text>
<rect x="830" y="28" width="110" height="32" rx="16" fill="#2563EB"/><text x="885" y="49" font-family="'Malgun Gothic','Segoe UI','Apple SD Gothic Neo',sans-serif" font-size="14" font-weight="700" fill="#fff" text-anchor="middle">16 / 21단계</text>
<rect x="830" y="66" width="110" height="28" rx="14" fill="#E9FBF7" stroke="#0D9488" stroke-width="1.5"/><text x="885" y="85" font-family="'Malgun Gothic','Segoe UI','Apple SD Gothic Neo',sans-serif" font-size="12.5" font-weight="700" fill="#0D9488" text-anchor="middle">검증</text>
<text x="132" y="137.0" font-family="'Malgun Gothic','Segoe UI','Apple SD Gothic Neo',sans-serif" font-size="16" font-weight="800" fill="#2563EB" text-anchor="end">코봇</text>
<g>
  <rect x="150" y="96" width="104" height="70" rx="14" fill="#EFF4FF" stroke="#2563EB" stroke-width="2" />
  <text x="202.0" y="135.0" font-family="'Malgun Gothic','Segoe UI','Apple SD Gothic Neo',sans-serif" font-size="16.5" font-weight="700" fill="#2563EB" text-anchor="middle">환경</text>
  <text x="202.0" y="154.0" font-family="'Malgun Gothic','Segoe UI','Apple SD Gothic Neo',sans-serif" font-size="11" fill="#5B6472" text-anchor="middle">사무실</text>
  <circle cx="241" cy="109" r="8" fill="#2563EB"/><path d="M 237.5 109 l 2.6 2.8 l 5 -6" stroke="#fff" stroke-width="1.8" fill="none" stroke-linecap="round" stroke-linejoin="round"/>
</g>
<g>
  <rect x="266" y="96" width="104" height="70" rx="14" fill="#EFF4FF" stroke="#2563EB" stroke-width="2" />
  <text x="318.0" y="135.0" font-family="'Malgun Gothic','Segoe UI','Apple SD Gothic Neo',sans-serif" font-size="16.5" font-weight="700" fill="#2563EB" text-anchor="middle">두뇌</text>
  <text x="318.0" y="154.0" font-family="'Malgun Gothic','Segoe UI','Apple SD Gothic Neo',sans-serif" font-size="11" fill="#5B6472" text-anchor="middle">모델</text>
  <circle cx="357" cy="109" r="8" fill="#2563EB"/><path d="M 353.5 109 l 2.6 2.8 l 5 -6" stroke="#fff" stroke-width="1.8" fill="none" stroke-linecap="round" stroke-linejoin="round"/>
</g>
<g>
  <rect x="382" y="96" width="104" height="70" rx="14" fill="#EFF4FF" stroke="#2563EB" stroke-width="2" />
  <text x="434.0" y="135.0" font-family="'Malgun Gothic','Segoe UI','Apple SD Gothic Neo',sans-serif" font-size="16.5" font-weight="700" fill="#2563EB" text-anchor="middle">지침</text>
  <text x="434.0" y="154.0" font-family="'Malgun Gothic','Segoe UI','Apple SD Gothic Neo',sans-serif" font-size="11" fill="#5B6472" text-anchor="middle">행동매뉴얼</text>
  <circle cx="473" cy="109" r="8" fill="#2563EB"/><path d="M 469.5 109 l 2.6 2.8 l 5 -6" stroke="#fff" stroke-width="1.8" fill="none" stroke-linecap="round" stroke-linejoin="round"/>
</g>
<g>
  <rect x="498" y="96" width="104" height="70" rx="14" fill="#EFF4FF" stroke="#2563EB" stroke-width="2" />
  <text x="550.0" y="135.0" font-family="'Malgun Gothic','Segoe UI','Apple SD Gothic Neo',sans-serif" font-size="16.5" font-weight="700" fill="#2563EB" text-anchor="middle">스킬</text>
  <text x="550.0" y="154.0" font-family="'Malgun Gothic','Segoe UI','Apple SD Gothic Neo',sans-serif" font-size="11" fill="#5B6472" text-anchor="middle">전문성 5종</text>
  <circle cx="589" cy="109" r="8" fill="#2563EB"/><path d="M 585.5 109 l 2.6 2.8 l 5 -6" stroke="#fff" stroke-width="1.8" fill="none" stroke-linecap="round" stroke-linejoin="round"/>
</g>
<g>
  <rect x="614" y="96" width="104" height="70" rx="14" fill="#EFF4FF" stroke="#2563EB" stroke-width="2" />
  <text x="666.0" y="135.0" font-family="'Malgun Gothic','Segoe UI','Apple SD Gothic Neo',sans-serif" font-size="16.5" font-weight="700" fill="#2563EB" text-anchor="middle">지식·기억</text>
  <text x="666.0" y="154.0" font-family="'Malgun Gothic','Segoe UI','Apple SD Gothic Neo',sans-serif" font-size="11" fill="#5B6472" text-anchor="middle">근거·맥락</text>
  <circle cx="705" cy="109" r="8" fill="#2563EB"/><path d="M 701.5 109 l 2.6 2.8 l 5 -6" stroke="#fff" stroke-width="1.8" fill="none" stroke-linecap="round" stroke-linejoin="round"/>
</g>
<g>
  <rect x="730" y="96" width="104" height="70" rx="14" fill="#EFF4FF" stroke="#2563EB" stroke-width="2" />
  <text x="782.0" y="135.0" font-family="'Malgun Gothic','Segoe UI','Apple SD Gothic Neo',sans-serif" font-size="16.5" font-weight="700" fill="#2563EB" text-anchor="middle">도구</text>
  <text x="782.0" y="154.0" font-family="'Malgun Gothic','Segoe UI','Apple SD Gothic Neo',sans-serif" font-size="11" fill="#5B6472" text-anchor="middle">행동</text>
  <circle cx="821" cy="109" r="8" fill="#2563EB"/><path d="M 817.5 109 l 2.6 2.8 l 5 -6" stroke="#fff" stroke-width="1.8" fill="none" stroke-linecap="round" stroke-linejoin="round"/>
</g>
<g>
  <rect x="846" y="96" width="104" height="70" rx="14" fill="#EFF4FF" stroke="#2563EB" stroke-width="2" />
  <text x="898.0" y="135.0" font-family="'Malgun Gothic','Segoe UI','Apple SD Gothic Neo',sans-serif" font-size="16.5" font-weight="700" fill="#2563EB" text-anchor="middle">전문가팀</text>
  <text x="898.0" y="154.0" font-family="'Malgun Gothic','Segoe UI','Apple SD Gothic Neo',sans-serif" font-size="11" fill="#5B6472" text-anchor="middle">슈퍼호스트</text>
  <circle cx="937" cy="109" r="8" fill="#2563EB"/><path d="M 933.5 109 l 2.6 2.8 l 5 -6" stroke="#fff" stroke-width="1.8" fill="none" stroke-linecap="round" stroke-linejoin="round"/>
</g>
<line x1="40" y1="200" x2="940" y2="200" stroke="#EEF0F3" stroke-width="1.5"/>
<text x="132" y="267.0" font-family="'Malgun Gothic','Segoe UI','Apple SD Gothic Neo',sans-serif" font-size="16" font-weight="800" fill="#0D9488" text-anchor="end">플로봇</text>
<g>
  <rect x="150" y="226" width="104" height="70" rx="14" fill="#E9FBF7" stroke="#0D9488" stroke-width="2" />
  <text x="202.0" y="265.0" font-family="'Malgun Gothic','Segoe UI','Apple SD Gothic Neo',sans-serif" font-size="16.5" font-weight="700" fill="#0D9488" text-anchor="middle">워크플로</text>
  <text x="202.0" y="284.0" font-family="'Malgun Gothic','Segoe UI','Apple SD Gothic Neo',sans-serif" font-size="11" fill="#5B6472" text-anchor="middle">정기 절차</text>
  <circle cx="241" cy="239" r="8" fill="#0D9488"/><path d="M 237.5 239 l 2.6 2.8 l 5 -6" stroke="#fff" stroke-width="1.8" fill="none" stroke-linecap="round" stroke-linejoin="round"/>
</g>
<g>
  <rect x="266" y="226" width="104" height="70" rx="14" fill="#E9FBF7" stroke="#0D9488" stroke-width="2" />
  <text x="318.0" y="265.0" font-family="'Malgun Gothic','Segoe UI','Apple SD Gothic Neo',sans-serif" font-size="16.5" font-weight="700" fill="#0D9488" text-anchor="middle">코봇연결</text>
  <text x="318.0" y="284.0" font-family="'Malgun Gothic','Segoe UI','Apple SD Gothic Neo',sans-serif" font-size="11" fill="#5B6472" text-anchor="middle">agent node</text>
  <circle cx="357" cy="239" r="8" fill="#0D9488"/><path d="M 353.5 239 l 2.6 2.8 l 5 -6" stroke="#fff" stroke-width="1.8" fill="none" stroke-linecap="round" stroke-linejoin="round"/>
</g>
<g>
  <rect x="382" y="226" width="104" height="70" rx="14" fill="#E9FBF7" stroke="#0D9488" stroke-width="2" />
  <text x="434.0" y="265.0" font-family="'Malgun Gothic','Segoe UI','Apple SD Gothic Neo',sans-serif" font-size="16.5" font-weight="700" fill="#0D9488" text-anchor="middle">트리거</text>
  <text x="434.0" y="284.0" font-family="'Malgun Gothic','Segoe UI','Apple SD Gothic Neo',sans-serif" font-size="11" fill="#5B6472" text-anchor="middle">무인 가동</text>
  <circle cx="473" cy="239" r="8" fill="#0D9488"/><path d="M 469.5 239 l 2.6 2.8 l 5 -6" stroke="#fff" stroke-width="1.8" fill="none" stroke-linecap="round" stroke-linejoin="round"/>
</g>
<rect x="40" y="332" width="900" height="58" rx="14" fill="#E9FBF7"/>
<text x="490.0" y="368" font-family="'Malgun Gothic','Segoe UI','Apple SD Gothic Neo',sans-serif" font-size="16.5" font-weight="700" fill="#1F2430" text-anchor="middle">검증 단계 — Preview로 즉시 확인·교정한다.</text>
<text x="40" y="414" font-family="'Malgun Gothic','Segoe UI','Apple SD Gothic Neo',sans-serif" font-size="11.5" fill="#5B6472">● 켜짐 = 이번 장까지 갖춘 능력   ◌ 점선 = 다음 장부터</text>
</svg>